<?xml version="1.0" encoding="UTF-8"?> <svg xmlns="http://www.w3.org/2000/svg" width="442" height="587" viewBox="0 0 442 587" fill="none"> <path d="M22.6989 0C9.25409 27.3224 1.6001 57.1241 0.216276 87.5389C-2.18384 140.216 15.4333 186.856 51.0268 222.387C88.9061 260.235 146.639 281.818 207.769 304.673C324.835 348.443 401.427 384.382 396.724 479.621H396.545C396.545 496.101 389.993 511.906 378.33 523.559C366.667 535.213 350.848 541.759 334.354 541.759C317.86 541.759 302.042 535.213 290.379 523.559C278.716 511.906 272.164 496.101 272.164 479.621H227.117C227.056 507.63 237.975 534.55 257.535 554.614C277.095 574.679 303.741 586.293 331.765 586.969C359.79 587.645 386.966 577.329 407.472 558.232C427.978 539.134 440.185 512.772 441.478 484.792H441.559C441.853 480.094 442 475.493 442 470.991C442 344.234 326.076 300.921 223.557 262.552C167.163 241.442 113.887 221.507 82.865 190.543C49.541 157.231 44.0387 117.23 45.3122 89.5455C47.1246 47.0322 65.5744 10.4081 76.3341 0H22.6989Z" fill="#36BEBE"></path> </svg> 