<?xml version="1.0" encoding="UTF-8"?> <svg xmlns="http://www.w3.org/2000/svg" width="241" height="242" viewBox="0 0 241 242" fill="none"> <path d="M190.353 120.982C190.357 134.859 186.262 148.426 178.586 159.966C170.911 171.506 160 180.502 147.233 185.815C134.466 191.128 120.417 192.52 106.862 189.815C93.3068 187.11 80.8552 180.429 71.0816 170.618C61.3081 160.806 54.6517 148.305 51.9542 134.694C49.2568 121.084 50.6394 106.976 55.9272 94.1547C61.2151 81.3333 70.1706 70.3746 81.6613 62.6643C93.152 54.9541 106.662 50.8388 120.482 50.8388C139.002 50.8631 156.757 58.2604 169.855 71.4089C182.952 84.5574 190.324 102.384 190.353 120.982ZM1.39667e-06 120.982C-0.00362661 144.915 7.06094 168.311 20.3003 188.212C33.5396 208.114 52.3589 223.625 74.3782 232.786C96.3974 241.946 120.627 244.344 144.004 239.676C167.38 235.008 188.853 223.483 205.706 206.56C222.56 189.637 234.037 168.075 238.685 144.601C243.334 121.128 240.947 96.7974 231.824 74.6868C222.701 52.5762 207.254 33.6787 187.435 20.3845C167.616 7.09024 144.316 -0.00364166 120.482 1.40247e-06C88.5398 0.0389976 57.9174 12.7977 35.3311 35.4777C12.7449 58.1577 0.0388364 88.9072 1.39667e-06 120.982Z" fill="#36BEBE"></path> </svg> 