<?xml version="1.0" encoding="UTF-8"?> <!-- Generator: Adobe Illustrator 24.2.1, SVG Export Plug-In . SVG Version: 6.00 Build 0) --> <svg xmlns="http://www.w3.org/2000/svg" xmlns:xlink="http://www.w3.org/1999/xlink" id="Layer_1" x="0px" y="0px" viewBox="0 0 69 82" style="enable-background:new 0 0 69 82;" xml:space="preserve"> <style type="text/css"> .st0{fill:#FFFFFF;} </style> <path class="st0" d="M39.3,37.9c-5.1,0-9.3,4.2-9.3,9.3s4.2,9.3,9.3,9.3s9.3-4.2,9.3-9.3S44.4,37.9,39.3,37.9z M39.3,52.6 c-3,0-5.4-2.4-5.4-5.4c0-3,2.4-5.4,5.4-5.4c3,0,5.4,2.4,5.4,5.4C44.7,50.2,42.3,52.6,39.3,52.6z"></path> <path class="st0" d="M54.9,37.2H51V66h11.8v-3.9h-7.9V37.2z"></path> <path class="st0" d="M57.4,45h4.3c2.2-3.9,6.3-3.1,6.8-3l0.1-0.2V38C65.3,37.5,59.7,38.5,57.4,45z"></path> <path class="st0" d="M51,20c-2-1-4.8-1.8-7.6-1.9c-4.6-0.2-8.6,1.3-11.7,4.4c-3.3,3.2-5.1,8.3-7.2,13.6 c-3.8,10.2-6.9,16.8-15.2,16.4c-3,0-5.4-2.4-5.4-5.4c0-3,2.4-5.4,5.4-5.4v-3.9C4.2,37.8,0,42,0,47.2c0,5,4,9,8.9,9.3 c0.4,0,0.8,0,1.2,0c11,0,14.8-10,18.1-19c1.9-4.9,3.6-9.5,6.2-12.2c2.9-2.9,6.4-3.3,8.8-3.3c3.7,0.2,6.9,1.8,7.8,2.7V20z"></path> </svg> 